<svg width="853" height="98" viewBox="0 0 853 98" fill="none" xmlns="http://www.w3.org/2000/svg">
<path d="M771.677 0.0277003C786.666 -0.0220557 803.472 -0.022204 810.705 0.177114C827.325 0.635208 853 17.4878 853 48.9857C853 64.7505 845.813 76.8373 836.952 85.0316C828.109 93.2091 817.548 97.5555 810.709 97.7933C804.007 98.0264 787.198 98.0263 772.077 97.9681C764.514 97.939 757.369 97.8951 752.114 97.8588C749.487 97.8406 747.332 97.8247 745.834 97.8129C745.085 97.807 744.501 97.8015 744.104 97.7982C743.905 97.7966 743.753 97.7961 743.65 97.7953C743.6 97.7949 743.561 97.7945 743.535 97.7943C743.522 97.7942 743.512 97.7934 743.506 97.7933H743.496L743 97.7894V0.181021L743.496 0.177114H743.534C743.56 0.176924 743.598 0.176508 743.648 0.176138C743.749 0.175397 743.897 0.174614 744.092 0.173208C744.482 0.170389 745.056 0.165567 745.791 0.160513C747.262 0.150403 749.379 0.137003 751.964 0.12145C757.135 0.0903441 764.18 0.0525859 771.677 0.0277003ZM779.404 16.015C774.109 16.0283 769.131 16.0482 765.479 16.0648C763.652 16.0731 762.157 16.0809 761.118 16.0863C760.599 16.089 760.193 16.0907 759.918 16.0922C759.78 16.0929 759.675 16.0937 759.604 16.0941C759.569 16.0943 759.542 16.094 759.524 16.0941C759.515 16.0942 759.508 16.0951 759.504 16.0951H759.497L759 16.097V81.9066L759.497 81.9095H759.525C759.544 81.9096 759.571 81.9103 759.606 81.9105C759.679 81.9109 759.786 81.9108 759.927 81.9115C760.208 81.9129 760.621 81.9157 761.149 81.9183C762.207 81.9235 763.729 81.9299 765.585 81.9379C769.296 81.9538 774.344 81.9729 779.687 81.9857C790.368 82.0112 802.242 82.0118 806.977 81.9095C821.678 81.5921 837 70.2249 837 49.0023C837 27.7816 821.799 16.4034 806.977 16.0951C801.866 15.9888 789.993 15.9885 779.404 16.015Z" fill="#f0f0eb"/>
<path d="M771.677 0.0277003C786.666 -0.0220557 803.472 -0.022204 810.705 0.177114C827.325 0.635208 853 17.4878 853 48.9857C853 64.7505 845.813 76.8373 836.952 85.0316C828.109 93.2091 817.548 97.5555 810.709 97.7933C804.007 98.0264 787.198 98.0263 772.077 97.9681C764.514 97.939 757.369 97.8951 752.114 97.8588C749.487 97.8406 747.332 97.8247 745.834 97.8129C745.085 97.807 744.501 97.8015 744.104 97.7982C743.905 97.7966 743.753 97.7961 743.65 97.7953C743.6 97.7949 743.561 97.7945 743.535 97.7943C743.522 97.7942 743.512 97.7934 743.506 97.7933H743.496L743 97.7894V0.181021L743.496 0.177114H743.534C743.56 0.176924 743.598 0.176508 743.648 0.176138C743.749 0.175397 743.897 0.174614 744.092 0.173208C744.482 0.170389 745.056 0.165567 745.791 0.160513C747.262 0.150403 749.379 0.137003 751.964 0.12145C757.135 0.0903441 764.18 0.0525859 771.677 0.0277003ZM779.404 16.015C774.109 16.0283 769.131 16.0482 765.479 16.0648C763.652 16.0731 762.157 16.0809 761.118 16.0863C760.599 16.089 760.193 16.0907 759.918 16.0922C759.78 16.0929 759.675 16.0937 759.604 16.0941C759.569 16.0943 759.542 16.094 759.524 16.0941C759.515 16.0942 759.508 16.0951 759.504 16.0951H759.497L759 16.097V81.9066L759.497 81.9095H759.525C759.544 81.9096 759.571 81.9103 759.606 81.9105C759.679 81.9109 759.786 81.9108 759.927 81.9115C760.208 81.9129 760.621 81.9157 761.149 81.9183C762.207 81.9235 763.729 81.9299 765.585 81.9379C769.296 81.9538 774.344 81.9729 779.687 81.9857C790.368 82.0112 802.242 82.0118 806.977 81.9095C821.678 81.5921 837 70.2249 837 49.0023C837 27.7816 821.799 16.4034 806.977 16.0951C801.866 15.9888 789.993 15.9885 779.404 16.015Z" fill="#f0f0eb" fill-opacity="0.2"/>
<path d="M28.6768 0.0276733C43.6659 -0.0220839 60.4734 -0.0222443 67.7061 0.177087C84.3264 0.635481 110 17.488 110 48.9857C110 64.7504 102.813 76.8373 93.9521 85.0316C85.1091 93.2091 74.548 97.5555 67.709 97.7933C61.0073 98.0264 44.1981 98.0262 29.0771 97.9681C21.5139 97.939 14.3685 97.8951 9.11426 97.8587C6.48708 97.8405 4.3317 97.8246 2.83398 97.8128C2.08538 97.8069 1.5009 97.8015 1.10352 97.7982C0.904784 97.7965 0.752647 97.7961 0.650391 97.7953C0.59959 97.7948 0.561059 97.7945 0.535156 97.7943C0.522422 97.7942 0.512387 97.7934 0.505859 97.7933H0.496094L0 97.7894V0.180994L0.496094 0.177087H0.53418C0.5596 0.176897 0.598306 0.176481 0.648438 0.176111C0.748619 0.17537 0.897329 0.174587 1.0918 0.173181C1.48167 0.170362 2.0558 0.16554 2.79102 0.160486C4.26155 0.150376 6.37855 0.136976 8.96387 0.121423C14.1347 0.0903171 21.1801 0.0525589 28.6768 0.0276733ZM36.4043 16.015C31.1085 16.0282 26.1313 16.0482 22.4785 16.0648C20.6523 16.0731 19.1569 16.0809 18.1182 16.0863C17.5988 16.089 17.1934 16.0906 16.918 16.0921C16.7804 16.0929 16.6753 16.0937 16.6045 16.0941C16.5692 16.0943 16.5424 16.094 16.5244 16.0941C16.5154 16.0941 16.5084 16.095 16.5039 16.0951H16.4971L16 16.097V81.9066L16.4971 81.9095H16.5254C16.5437 81.9096 16.5708 81.9103 16.6064 81.9105C16.6787 81.9109 16.7864 81.9107 16.9268 81.9115C17.2075 81.9129 17.6205 81.9157 18.1494 81.9183C19.2073 81.9235 20.7293 81.9298 22.585 81.9378C26.2964 81.9538 31.3438 81.9729 36.6865 81.9857C47.3684 82.0112 59.2419 82.0118 63.9766 81.9095C78.6782 81.592 93.9999 70.2249 94 49.0023C93.9998 27.7815 78.7993 16.4034 63.9766 16.0951C58.8661 15.9888 46.9926 15.9885 36.4043 16.015Z" fill="#f0f0eb"/>
<path d="M242.5 12.5007C268.457 12.5007 289.5 28.8423 289.5 49.0007C289.5 69.1591 268.457 85.5007 242.5 85.5007C216.543 85.5007 195.5 69.1591 195.5 49.0007C195.5 28.8423 216.543 12.5007 242.5 12.5007Z" stroke="#f0f0eb"/>
<path d="M242.5 0.000671387C277.441 0.000671387 306 21.825 306 49.0007C306 76.1763 277.441 98.0007 242.5 98.0007C207.559 98.0007 179 76.1763 179 49.0007C179 21.825 207.559 0.000671387 242.5 0.000671387ZM242.5 12.0007C216.392 12.0007 195 28.4559 195 49.0007C195 69.5455 216.392 86.0007 242.5 86.0007C268.608 86.0007 290 69.5455 290 49.0007C290 28.4559 268.608 12.0007 242.5 12.0007Z" fill="#f0f0eb"/>
<path d="M611.5 0.000671387C646.441 0.000671387 675 21.825 675 49.0007C675 76.1763 646.441 98.0007 611.5 98.0007C576.559 98.0007 548 76.1763 548 49.0007C548 21.825 576.559 0.000671387 611.5 0.000671387ZM611.5 12.0007C585.391 12.0007 564 28.4559 564 49.0007C564 69.5454 585.391 86.0007 611.5 86.0007C637.609 86.0007 659 69.5454 659 49.0007C659 28.4559 637.609 12.0007 611.5 12.0007Z" fill="#f0f0eb"/>
<path d="M362.5 0.500671L417 97.5007H435.5L471.5 36.8135H452.5L427 80.5878L380 0.500671H362.5Z" fill="#f0f0eb" stroke="#f0f0eb"/>
<path d="M458 27.5007H476.5L492 0.500671H473.5L458 27.5007Z" fill="#4B6EF5" stroke="#4B6EF5"/>
</svg>
